<svg width="135" height="36" viewBox="0 0 135 36" fill="none" xmlns="http://www.w3.org/2000/svg">
<path d="M102.912 27.0732C105.236 27.0732 107.161 26.1107 108.335 24.7023V26.2516C108.335 26.5098 108.546 26.721 108.804 26.721H113.264V8.76325H108.804C108.546 8.76325 108.335 8.97451 108.335 9.23273V10.5238C107.161 9.25621 105.306 8.41113 102.982 8.41113C98.9214 8.41113 94.25 11.3924 94.25 17.7539C94.25 24.0685 99.0857 27.0732 102.912 27.0732ZM103.874 22.5661C101.151 22.5661 99.0622 20.4769 99.0622 17.7069C99.0622 14.937 101.151 12.8947 103.874 12.8947C106.527 12.8947 108.475 15.0543 108.475 17.7069C108.475 20.3595 106.527 22.5661 103.874 22.5661Z" fill="#1B1A19"/>
<path d="M81.9276 27.0731C84.2516 27.0731 86.1765 26.1106 87.3502 24.7022V26.2515C87.3502 26.5097 87.5614 26.721 87.8197 26.721H92.2798V0.500244H87.3502V10.5237C86.1765 9.25614 84.322 8.41107 81.998 8.41107C77.937 8.41107 73.2656 11.3923 73.2656 17.7538C73.2656 24.0684 78.1248 27.0731 81.9276 27.0731ZM82.8901 22.566C80.1671 22.566 78.0778 20.4768 78.0778 17.7069C78.0778 14.9369 80.1671 12.8946 82.8901 12.8946C85.5427 12.8946 87.491 15.0543 87.491 17.7069C87.491 20.3595 85.5427 22.566 82.8901 22.566Z" fill="#1B1A19"/>
<path d="M45.9384 8.03516C43.0981 8.03516 40.9384 9.25582 39.7647 10.7112V9.23234C39.7647 8.97413 39.5535 8.76286 39.2952 8.76286H35.3516V26.7207H40.422V17.284C40.422 14.0915 41.9244 12.2136 44.5535 12.2136C47.1122 12.2136 48.2859 13.8568 48.2859 17.0023V26.7441H53.3563V16.6972C53.3328 9.98352 49.6943 8.03516 45.9384 8.03516Z" fill="#1B1A19"/>
<path fill-rule="evenodd" clip-rule="evenodd" d="M14.7653 26.721H9.55402L12.4883 18.4815C9.76529 16.3688 5.82161 16.5566 3.33334 19.0684L0 15.735C3.8263 11.9087 9.64792 11.2984 14.108 13.9275L18.8733 0.500244H23.8968L33.1926 26.721H27.9813L26.1503 21.4393C23.1221 22.8008 19.6245 22.8008 16.5728 21.4393L14.7653 26.721ZM18.1456 16.9792C18.4508 17.1435 18.7559 17.2609 19.0611 17.3782C20.5634 17.8947 22.1832 17.8947 23.6855 17.3782C23.9907 17.2609 24.3193 17.12 24.6245 16.9792L21.385 7.61294L18.1456 16.9792Z" fill="#1B1A19"/>
<path d="M57.4665 35.4533H61.6919C62.1614 35.4533 62.6074 35.1481 62.7717 34.7021L73.1004 8.66919H67.8891L63.6872 19.9368L59.1801 8.66919H53.8984L61.1755 26.181L57.4665 35.4533Z" fill="#1B1A19"/>
<path d="M118.638 35.4999H122.864C123.333 35.4999 123.779 35.1948 123.944 34.7488L134.272 8.71582H129.061L124.859 19.9835L120.352 8.71582H115.07L122.347 26.2276L118.638 35.4999Z" fill="#1B1A19"/>
</svg>
