<svg width="158" height="50" viewBox="0 0 158 50" fill="none" xmlns="http://www.w3.org/2000/svg">
<g clip-path="url(#clip0_0_615)">
<path d="M16.5114 46.6407H13.1606L2.99806 33.1143H2.90982V46.6407H0V28.8546H3.28458L13.5133 42.5343H13.6013V28.8546H16.5114L16.5114 46.6407Z" fill="#171717"/>
<path d="M26.6711 46.9044C25.2747 46.9044 24.0588 46.6226 23.0227 46.0587C21.9867 45.4952 21.1891 44.6939 20.6308 43.6544C20.0722 42.6153 19.7933 41.4 19.7933 40.0093C19.7933 38.6187 20.0688 37.4146 20.6198 36.397C21.171 35.38 21.9536 34.5933 22.9676 34.0367C23.9816 33.4806 25.1794 33.2022 26.561 33.2022C27.8836 33.2022 29.0223 33.4625 29.9777 33.9815C30.9329 34.5016 31.6716 35.2408 32.1934 36.1993C32.7147 37.1583 32.976 38.2965 32.976 39.6138V40.712H22.659C22.7764 41.9127 23.1806 42.8385 23.8715 43.4898C24.562 44.1412 25.4879 44.4669 26.649 44.4669C27.5012 44.4669 28.1995 44.3057 28.7434 43.984C29.2867 43.6617 29.6615 43.1788 29.8676 42.5343H32.9098C32.5863 43.9107 31.8772 44.983 30.7823 45.7515C29.6875 46.5201 28.3169 46.9044 26.6711 46.9044ZM22.7472 38.626H30.1101C29.9924 37.6597 29.625 36.9171 29.0078 36.397C28.3907 35.8775 27.575 35.6177 26.561 35.6177C25.547 35.6177 24.7093 35.8775 24.0478 36.397C23.3865 36.9171 22.9529 37.6597 22.7472 38.626Z" fill="#171717"/>
<path d="M36.4405 46.6407V36.4742H34.9194V33.4659H38.0496V35.5518H39.0638C39.4751 34.8053 40.052 34.231 40.7942 33.8282C41.5361 33.4254 42.4366 33.2242 43.4947 33.2242C44.5381 33.2242 45.4308 33.422 46.1732 33.817C46.9151 34.2125 47.5141 34.8053 47.9698 35.5958H48.0359C49.0058 34.0147 50.5193 33.2242 52.5771 33.2242C54.2377 33.2242 55.5455 33.7037 56.5009 34.6622C57.4561 35.6212 57.9338 36.9278 57.9338 38.5821V46.6407H54.9357V39.109C54.9357 36.9425 53.8921 35.859 51.8056 35.859C49.719 35.859 48.6751 36.9425 48.6751 39.109V46.6407H45.6771V39.109C45.6771 36.9425 44.6261 35.859 42.5246 35.859C41.5106 35.859 40.7425 36.1339 40.2212 36.6827C39.6993 37.2315 39.4386 38.0406 39.4386 39.109V46.6407L36.4405 46.6407Z" fill="#171717"/>
<path d="M69.3582 46.9044C68.2704 46.9044 67.3373 46.7027 66.5584 46.3004C65.7792 45.898 65.1697 45.316 64.7287 44.5548H63.8027V46.6407H60.6726V43.6324H62.1936V28.1959H65.1917V35.442H65.2797C65.6765 34.7247 66.2459 34.172 66.9883 33.7843C67.7302 33.3966 68.6011 33.2022 69.6006 33.2022C70.8643 33.2022 71.9484 33.4806 72.8521 34.0367C73.756 34.5934 74.4467 35.3873 74.9244 36.419C75.4019 37.4513 75.6408 38.6627 75.6408 40.0533C75.6408 41.4439 75.3945 42.652 74.9023 43.6764C74.4097 44.7013 73.6972 45.4952 72.7641 46.0587C71.8305 46.6227 70.6952 46.9044 69.3582 46.9044ZM68.829 44.335C70.0636 44.335 71.0077 43.9547 71.6616 43.1934C72.3156 42.4322 72.6428 41.3853 72.6428 40.0533C72.6428 38.7213 72.3155 37.6744 71.6616 36.9132C71.0077 36.1519 70.0636 35.7716 68.829 35.7716C67.7268 35.7716 66.8449 36.0865 66.1836 36.7154C65.5223 37.3453 65.1917 38.1944 65.1917 39.2628V40.8438C65.1917 41.9127 65.5223 42.7618 66.1836 43.3907C66.8449 44.0206 67.7268 44.335 68.829 44.335Z" fill="#171717"/>
<path d="M84.7963 46.9044C83.4 46.9044 82.184 46.6226 81.148 46.0587C80.1119 45.4952 79.3073 44.7013 78.734 43.6763C78.161 42.6519 77.8744 41.4439 77.8744 40.0533C77.8744 38.6627 78.157 37.4551 78.723 36.4302C79.2886 35.4053 80.0933 34.6114 81.1369 34.0474C82.1803 33.4844 83.4076 33.2022 84.8183 33.2022C86.2436 33.2022 87.4711 33.4806 88.4997 34.0367C89.5284 34.5933 90.3221 35.3839 90.8806 36.4083C91.439 37.4332 91.7184 38.648 91.7184 40.0533C91.7184 41.4439 91.4353 42.6554 90.8696 43.6871C90.3037 44.7193 89.5064 45.5138 88.4777 46.0699C87.449 46.6261 86.2215 46.9044 84.7963 46.9044ZM84.7963 44.3131C86.0453 44.3131 87.0118 43.9327 87.6951 43.1715C88.3787 42.4102 88.7204 41.3634 88.7204 40.0313C88.7204 38.6993 88.3787 37.6597 87.6951 36.9132C87.0118 36.1666 86.0453 35.793 84.7963 35.793C83.5617 35.793 82.5992 36.1705 81.9085 36.9239C81.2176 37.6783 80.8725 38.714 80.8725 40.0313C80.8725 41.3634 81.2176 42.4102 81.9085 43.1715C82.5992 43.9327 83.5617 44.3131 84.7963 44.3131Z" fill="#171717"/>
<path d="M94.6184 46.6407V28.1959H97.6165V38.8673H97.7045L103.546 33.4659H107.162L101.298 38.7359L107.647 46.6407H104.075L99.2256 40.5582L97.6165 41.8756V46.6407L94.6184 46.6407Z" fill="#171717"/>
<path d="M114.745 46.9044C112.863 46.9044 111.379 46.5128 110.292 45.7296C109.204 44.9464 108.609 43.8521 108.506 42.4469H111.438C111.541 43.1642 111.871 43.6983 112.43 44.0494C112.988 44.401 113.797 44.5768 114.855 44.5768C116.677 44.5768 117.589 44.0353 117.589 42.9518C117.589 42.5128 117.449 42.1686 117.17 41.9195C116.89 41.671 116.427 41.4879 115.781 41.3707L112.849 40.8219C110.306 40.3385 109.035 39.1383 109.035 37.2208C109.035 35.9908 109.52 35.0138 110.49 34.2892C111.46 33.5646 112.79 33.2023 114.48 33.2023C116.185 33.2023 117.54 33.5753 118.547 34.3219C119.554 35.0685 120.116 36.1085 120.234 37.44H117.346C117.184 36.7672 116.864 36.2691 116.387 35.9469C115.909 35.6251 115.222 35.464 114.326 35.464C113.532 35.464 112.922 35.5958 112.496 35.859C112.07 36.1227 111.857 36.5035 111.857 37.0011C111.857 37.3673 111.993 37.6637 112.265 37.8902C112.536 38.1173 112.966 38.2892 113.554 38.4064L116.508 38.9772C117.845 39.2262 118.823 39.6544 119.44 40.2618C120.057 40.8692 120.366 41.6856 120.366 42.7101C120.366 44.0274 119.881 45.0562 118.911 45.7955C117.941 46.5348 116.552 46.9044 114.745 46.9044Z" fill="#171717"/>
<path d="M132.921 25V50H158V25H132.921Z" fill="#FF6A6D"/>
<path d="M120.381 0L107.841 12.5L120.381 25H132.921V12.5L120.381 0Z" fill="#FF6A6D"/>
</g>
<defs>
<clipPath id="clip0_0_615">
<rect width="158" height="50" fill="white"/>
</clipPath>
</defs>
</svg>
